# AST/ASF file generated using VICON BodyLanguage
# -----------------------------------------------
:version 1.10
:name VICON
:units
  mass 1.0
  length 0.45
  angle deg
:documentation
   .ast/.asf automatically generated from VICON data using
   VICON BodyBuilder and BodyLanguage model FoxedUp or BRILLIANT.MOD
:root
   order TX TY TZ RX RY RZ
   axis XYZ
   position 0 0 0  
   orientation 0 0 0 
:bonedata
  begin
     id 1 
     name lhipjoint
     direction 0.623529 -0.717805 0.309788 
     length 2.23224 
     axis 0 0 0  XYZ
  end
  begin
     id 2 
     name lfemur
     direction 0.34202 -0.939693 0  
     length 7.11402  
     axis 0 0 20  XYZ
    dof rx ry rz
    limits (-160.0 20.0)
           (-70.0 70.0)
           (-60.0 70.0)
  end
  begin
     id 3 
     name ltibia
     direction 0.34202 -0.939693 0   
     length 6.78496   
     axis 0 0 20   XYZ
    dof rx
    limits (-10.0 170.0)
  end
  begin
     id 4 
     name lfoot
     direction 0.125078 -0.343648 0.930732   
     length 1.84054   
     axis -90 7.62852e-016 20   XYZ
    dof rx rz
    limits (-45.0 90.0)
           (-70.0 20.0)
  end
  begin
     id 5 
     name ltoes
     direction 1.53565e-011 -4.21893e-011 1   
     length 0.916474   
     axis -90 7.62852e-016 20   XYZ
    dof rx
    limits (-90.0 20.0)
  end
  begin
     id 6 
     name rhipjoint
     direction -0.564688 -0.757748 0.327026   
     length 2.11457  
     axis 0 0 0  XYZ 
  end
  begin
     id 7 
     name rfemur
     direction -0.34202 -0.939693 0   
     length 7.14609   
     axis 0 0 -20   XYZ
    dof rx ry rz
    limits (-160.0 20.0)
           (-70.0 70.0)
           (-70.0 60.0)
  end
  begin
     id 8 
     name rtibia
     direction -0.34202 -0.939693 0   
     length 6.78101   
     axis 0 0 -20   XYZ
    dof rx
    limits (-10.0 170.0)
 end
 begin
     id 9 
     name rfoot
     direction -0.0992671 -0.272734 0.956955   
     length 1.96168  
     axis -90 -7.62852e-016 -20   XYZ
    dof rx rz
    limits (-45.0 90.0)
           (-20.0 70.0)
  end
  begin
     id 10 
     name rtoes
     direction -1.5356e-011 -4.21891e-011 1   
     length 0.982933   
     axis -90 -7.62852e-016 -20   XYZ
    dof rx
    limits (-90.0 20.0)
  end
  begin
     id 11 
     name lowerback
     direction -0.00596953 0.998668 0.0512524   
     length 1.87557   
     axis 0 0 0   XYZ
    dof rx ry rz
    limits (-20.0 45.0)
           (-30.0 30.0)
           (-30.0 30.0)
  end
  begin
     id 12 
     name upperback
     direction 0.00584879 0.999652 0.0257308   
     length 1.87883   
     axis 0 0 0   XYZ
    dof rx ry rz
    limits (-20.0 45.0)
           (-30.0 30.0)
           (-30.0 30.0)
  end
  begin
     id 13 
     name thorax
     direction 0.010104 0.999947 0.00178881   
     length 1.87779   
     axis 0 0 0   XYZ
    dof rx ry rz
    limits (-20.0 45.0)
           (-30.0 30.0)
           (-30.0 30.0)
  end
  begin
     id 14 
     name lowerneck
     direction 0.0120771 0.995934 -0.0892773   
     length 1.40897   
     axis 0 0 0   XYZ
    dof rx ry rz
    limits (-20.0 45.0)
           (-30.0 30.0)
           (-30.0 30.0)
  end
  begin
     id 15 
     name upperneck
     direction -0.030568 0.999465 -0.0116366   
     length 1.38661   
     axis 0 0 0   XYZ
    dof rx ry rz
    limits (-20.0 45.0)
           (-30.0 30.0)
           (-30.0 30.0)
  end
  begin
     id 16
     name head
     direction -0.0170715 0.999854 -0.00104426  
     length 1.47052  
     axis 0 0 0   XYZ
    dof rx ry rz
    limits (-20.0 45.0)
           (-30.0 30.0)
           (-30.0 30.0)
  end
  begin
     id 17 
     name lclavicle
     direction 0.977763 0.206143 0.038532  
     length 3.02424  
     axis 0 0 0   XYZ
    dof ry rz
    limits (-20.0 10.0)
           (0.0 20.0)
  end
  begin
     id 18 
     name lhumerus
     direction 1 -4.48965e-011 -2.62654e-027   
     length 4.68382   
     axis 180 -30 -90   XYZ
    dof rx ry rz
    limits (-60.0 90.0)
           (-90.0 90.0)
           (-90.0 90.0)
  end
  begin
     id 19
     name lradius
     direction 1 -4.48973e-011 -1.54954e-027   
     length 2.98124   
     axis 180 -30 -90   XYZ
    dof rx
    limits (-10.0 170.0)
  end
  begin
     id 20
     name lwrist
     direction 1 -4.48959e-011 7.20928e-028   
     length 1.49062   
     axis -5.52449e-016 90 90   XYZ
    dof ry
    limits (-180.0 0.0)
 end
  begin
     id 21 
     name lhand
     direction 1 -4.48971e-011 1.44186e-027   
     length 0.707595   
     axis -9.20027e-016 90 90   XYZ
    dof rx rz
    limits (-90.0 90.0)
           (-45.0 45.0)
  end
  begin
     id 22 
     name lfingers
     direction 1 -4.48985e-011 2.88371e-027   
     length 0.570481   
     axis -1.84005e-015 90 90   XYZ
    dof rx
    limits (0.0 90.0)
  end
  begin
     id 23
     name lthumb
     direction 0.707107 -6.34929e-011 0.707107   
     length 0.819101   
     axis -90 45 2.85299e-015   XYZ
    dof rx rz
    limits (-45.0 45.0)
           (-45.0 45.0)
  end
  begin
     id 24 
     name rclavicle
     direction -0.958661 0.284411 -0.00895327   
     length 3.11921  
     axis 0 0 0   XYZ 
    dof ry rz
    limits (-10.0 20.0)
           (-20.0 0.0)
  end
  begin
     id 25 
     name rhumerus
     direction -1 -4.48963e-011 -4.22193e-027  
     length 4.75876   
     axis 180 30 90   XYZ
    dof rx ry rz
    limits (-90.0 60.0)
           (-90.0 90.0)
           (-90.0 90.0)
  end
  begin
     id 26 
     name rradius
     direction -1 -4.48968e-011 -1.07616e-027   
     length 2.93293   
     axis 180 30 90   XYZ
    dof rx
    limits (-10.0 170.0)
  end
  begin
     id 27 
     name rwrist
     direction -1 -4.48965e-011 7.20928e-028   
     length 1.46647   
     axis -5.52449e-016 -90 -90   XYZ
    dof ry
    limits (-180.0 0.0)
  end
  begin
     id 28
     name rhand
     direction -1 -4.48971e-011 1.44186e-027   
     length 0.831748   
     axis -9.20027e-016 -90 -90   XYZ
    dof rx rz
    limits (-90.0 90.0)
           (-45.0 45.0)
  end
  begin
     id 29
     name rfingers
     direction -1 -4.48961e-011 2.88371e-027   
     length 0.670577   
     axis -1.84005e-015 -90 -90   XYZ
    dof rx
    limits (0.0 90.0)
  end
  begin
     id 30
     name rthumb
     direction -0.707107 -6.34929e-011 0.707107   
     length 0.962818   
     axis -90 -45 -2.85299e-015   XYZ
    dof rx rz
    limits (-45.0 45.0)
           (-45.0 45.0)
  end
:hierarchy
  begin
    root lhipjoint rhipjoint lowerback
    lhipjoint lfemur
    lfemur ltibia
    ltibia lfoot
    lfoot ltoes
    rhipjoint rfemur
    rfemur rtibia
    rtibia rfoot
    rfoot rtoes
    lowerback upperback
    upperback thorax
    thorax lowerneck lclavicle rclavicle
    lowerneck upperneck
    upperneck head
    lclavicle lhumerus
    lhumerus lradius
    lradius lwrist
    lwrist lhand lthumb
    lhand lfingers
    rclavicle rhumerus
    rhumerus rradius
    rradius rwrist
    rwrist rhand rthumb
    rhand rfingers
  end

#!OML:ASF E:\id_vita\Project 1\Capture day 1\Session 1\Female.ASF
:FULLY-SPECIFIED
:DEGREES
121
root 48.1845 16.652 -0.634238 -154.364 -86.9087 169.392
lowerback -16.0239 0.272686 -2.9463
upperback -6.31849 0.433178 0.2586
thorax 2.23278 0.103076 2.00753
lowerneck 4.79519 -4.04322 -5.07089
upperneck 7.26968 -6.1421 6.84693
head 1.90013 -3.19257 3.08258
rclavicle -2.50539e-015 1.11506e-015
rhumerus -3.18134 48.81 -97.3257
rradius 134.396
rwrist -28.9382
rhand -6.0351 9.73267
rfingers 7.12502
rthumb 19.7986 -19.279
lclavicle -2.50539e-015 1.11506e-015
lhumerus -34.0377 24.4177 79.8566
lradius 14.8889
lwrist -54.048
lhand 21.4743 25.7779
lfingers 7.12502
lthumb 45.906 48.9115
rfemur -20.9753 16.5641 15.1159
rtibia 21.3595
rfoot -5.5701 -20.8302
rtoes -15.4361
lfemur -24.4065 -13.3157 -17.0833
ltibia 27.6098
lfoot -18.7083 9.33329
ltoes 3.39217
122
root 48.1826 16.651 -0.634351 -154.75 -86.9032 169.719
lowerback -15.9192 0.0391223 -2.81308
upperback -6.46965 0.0844238 0.431193
thorax 2.03741 -0.0699798 2.05197
lowerneck 5.11289 -3.74333 -5.59983
upperneck 7.45688 -5.78675 6.81791
head 1.89971 -3.03834 3.18213
rclavicle -8.4235e-015 2.5842e-015
rhumerus -4.08264 49.4435 -97.9073
rradius 133.861
rwrist -29.2818
rhand -5.12869 9.57108
rfingers 7.12502
rthumb 20.6698 -19.3483
lclavicle -8.4235e-015 2.5842e-015
lhumerus -34.6884 25.1652 79.3932
lradius 14.9836
lwrist -54.0308
lhand 21.3706 25.6309
lfingers 7.12502
lthumb 45.8097 48.8043
rfemur -20.8864 16.6339 15.1366
rtibia 21.3332
rfoot -5.53524 -20.8328
rtoes -15.1887
lfemur -24.3382 -13.342 -17.0834
ltibia 27.6324
lfoot -18.6421 9.36787
ltoes 3.30781
123
root 48.1805 16.6496 -0.633735 -154.879 -86.9466 169.772
lowerback -15.8598 -0.182906 -2.68025
upperback -6.53196 -0.238728 0.566812
thorax 1.95889 -0.231292 2.06353
lowerneck 5.23433 -3.49265 -6.04334
upperneck 7.68573 -5.4907 6.81732
head 1.94848 -2.9077 3.27063
rclavicle 1.03057e-014 -3.37934e-015
rhumerus -4.97258 49.9456 -98.3467
rradius 133.149
rwrist -29.4681
rhand -4.22393 9.69096
rfingers 7.12502
rthumb 21.5389 -19.1314
lclavicle 1.03057e-014 -3.37934e-015
lhumerus -35.144 25.7753 79.0284
lradius 15.0791
lwrist -53.9254
lhand 21.2406 25.5631
lfingers 7.12502
lthumb 45.689 48.786
rfemur -20.7735 16.5415 15.1984
rtibia 21.3052
rfoot -5.49402 -20.8356
rtoes -15.5731
lfemur -24.2511 -13.3441 -17.0958
ltibia 27.6589
lfoot -18.7094 9.30966
ltoes 3.40326
124
root 48.1803 16.6501 -0.633505 -154.461 -87.0635 169.46
lowerback -15.9482 -0.597713 -2.47078
upperback -6.67712 -0.836435 0.818679
thorax 1.88643 -0.532579 2.10652
lowerneck 5.53343 -3.00458 -6.94309
upperneck 7.80076 -4.90667 6.96937
head 1.92499 -2.64837 3.50676
rclavicle -3.50358e-015 1.39149e-015
rhumerus -6.1764 50.9605 -99.0345
rradius 132.357
rwrist -29.5421
rhand -3.53485 9.46058
rfingers 7.12502
rthumb 22.2006 -19.2845
lclavicle -3.50358e-015 1.39149e-015
lhumerus -35.9114 27.1218 78.2624
lradius 15.1676
lwrist -54.005
lhand 20.9883 25.3973
lfingers 7.12502
lthumb 45.4547 48.7155
rfemur -20.8727 16.4929 15.1902
rtibia 21.2827
rfoot -5.41443 -20.9305
rtoes -15.9405
lfemur -24.3958 -13.2861 -17.0603
ltibia 27.6828
lfoot -18.7649 9.11094
ltoes 3.63608
125
root 48.1804 16.6492 -0.634039 -154.293 -87.1183 169.267
lowerback -15.8908 -0.566364 -2.50304
upperback -6.63095 -0.78539 0.780305
thorax 1.90197 -0.505723 2.09349
lowerneck 5.30441 -3.11089 -6.82048
upperneck 7.94682 -5.0342 6.89408
head 2.01776 -2.70542 3.45125
rclavicle -1.10574e-014 -9.14409e-015
rhumerus -6.77509 50.7853 -98.9069
rradius 131.519
rwrist -29.4074
rhand -2.9576 9.24158
rfingers 7.12502
rthumb 22.7547 -19.4365
lclavicle -1.10574e-014 -9.14409e-015
lhumerus -35.7824 27.1012 78.2495
lradius 15.1044
lwrist -53.9958
lhand 20.8088 25.2961
lfingers 7.12502
lthumb 45.2878 48.6813
rfemur -20.8256 16.517 15.2039
rtibia 21.2684
rfoot -5.40374 -20.9652
rtoes -15.7185
lfemur -24.3859 -13.204 -17.0724
ltibia 27.6995
lfoot -18.7908 8.98228
ltoes 3.65984
